{
  "accessors": [
    {
      "name": "Node-Mesh_0_positions",
      "componentType": 5126,
      "count": 117,
      "min": [
        -102.2314453125,
        -266.2426452636719,
        -181.71978759765625
      ],
      "max": [
        388.4825134277344,
        -43.986854553222656,
        228.0542449951172
      ],
      "type": "VEC3",
      "bufferView": 0,
      "byteOffset": 0
    },
    {
      "name": "Node-Mesh_0_normals",
      "componentType": 5126,
      "count": 117,
      "min": [
        -0.9917317628860474,
        0.10439199209213257,
        -0.9795803427696228
      ],
      "max": [
        0.7924908399581909,
        0.9791375994682312,
        0.4159499406814575
      ],
      "type": "VEC3",
      "bufferView": 1,
      "byteOffset": 0
    },
    {
      "name": "Node-Mesh_0_texcoords",
      "componentType": 5126,
      "count": 117,
      "min": [
        0.47899898886680603,
        0.18389500677585602
      ],
      "max": [
        0.9723569750785828,
        0.8058630228042603
      ],
      "type": "VEC2",
      "bufferView": 2,
      "byteOffset": 0
    },
    {
      "name": "Node-Mesh_0_indices",
      "componentType": 5123,
      "count": 117,
      "min": [
        0
      ],
      "max": [
        116
      ],
      "type": "SCALAR",
      "bufferView": 3,
      "byteOffset": 0
    },
    {
      "name": "Node-Mesh_1_positions",
      "componentType": 5126,
      "count": 171,
      "min": [
        -102.2314453125,
        -239.29248046875,
        -164.99691772460938
      ],
      "max": [
        388.4825134277344,
        -37.43622970581055,
        306.04345703125
      ],
      "type": "VEC3",
      "bufferView": 0,
      "byteOffset": 1404
    },
    {
      "name": "Node-Mesh_1_normals",
      "componentType": 5126,
      "count": 171,
      "min": [
        -0.9567834138870239,
        0.044041018933057785,
        -0.818930447101593
      ],
      "max": [
        0.9759156703948975,
        0.9986807703971863,
        0.971062958240509
      ],
      "type": "VEC3",
      "bufferView": 1,
      "byteOffset": 1404
    },
    {
      "name": "Node-Mesh_1_texcoords",
      "componentType": 5126,
      "count": 171,
      "min": [
        0.5351430177688599,
        0.25481799244880676
      ],
      "max": [
        0.9799389839172363,
        0.8415510058403015
      ],
      "type": "VEC2",
      "bufferView": 2,
      "byteOffset": 936
    },
    {
      "name": "Node-Mesh_1_indices",
      "componentType": 5123,
      "count": 171,
      "min": [
        0
      ],
      "max": [
        170
      ],
      "type": "SCALAR",
      "bufferView": 3,
      "byteOffset": 236
    }
  ],
  "asset": {
    "generator": "obj2gltf",
    "version": "2.0"
  },
  "buffers": [
    {
      "name": "hat_clean3",
      "byteLength": 2242168,
      "uri": "data:application/octet-stream;base64,"
    }
  ],
  "bufferViews": [
    {
      "name": "bufferView_0",
      "buffer": 0,
      "byteLength": 3456,
      "byteOffset": 0,
      "byteStride": 12,
      "target": 34962
    },
    {
      "name": "bufferView_1",
      "buffer": 0,
      "byteLength": 3456,
      "byteOffset": 3456,
      "byteStride": 12,
      "target": 34962
    },
    {
      "name": "bufferView_2",
      "buffer": 0,
      "byteLength": 2304,
      "byteOffset": 6912,
      "byteStride": 8,
      "target": 34962
    },
    {
      "name": "bufferView_3",
      "buffer": 0,
      "byteLength": 580,
      "byteOffset": 9216,
      "target": 34963
    },
    {
      "buffer": 0,
      "byteOffset": 9796,
      "byteLength": 1199236
    },
    {
      "buffer": 0,
      "byteOffset": 1209032,
      "byteLength": 1033135
    }
  ],
  "images": [
    {
      "name": "1651003284438_2",
      "mimeType": "image/png",
      "bufferView": 4
    },
    {
      "name": "1651003284438_3",
      "mimeType": "image/png",
      "bufferView": 5
    }
  ],
  "materials": [
    {
      "name": "material_0",
      "pbrMetallicRoughness": {
        "baseColorTexture": {
          "index": 0
        },
        "baseColorFactor": [
          1,
          1,
          1,
          1
        ],
        "metallicFactor": 0,
        "roughnessFactor": 1
      },
      "emissiveFactor": [
        0,
        0,
        0
      ],
      "alphaMode": "OPAQUE",
      "doubleSided": false
    },
    {
      "name": "material_1",
      "pbrMetallicRoughness": {
        "baseColorTexture": {
          "index": 1
        },
        "baseColorFactor": [
          1,
          1,
          1,
          1
        ],
        "metallicFactor": 0,
        "roughnessFactor": 1
      },
      "emissiveFactor": [
        0,
        0,
        0
      ],
      "alphaMode": "OPAQUE",
      "doubleSided": false
    }
  ],
  "meshes": [
    {
      "name": "Node-Mesh",
      "primitives": [
        {
          "attributes": {
            "POSITION": 0,
            "NORMAL": 1,
            "TEXCOORD_0": 2
          },
          "indices": 3,
          "material": 0,
          "mode": 4
        },
        {
          "attributes": {
            "POSITION": 4,
            "NORMAL": 5,
            "TEXCOORD_0": 6
          },
          "indices": 7,
          "material": 1,
          "mode": 4
        }
      ]
    }
  ],
  "nodes": [
    {
      "name": "Node",
      "mesh": 0
    }
  ],
  "samplers": [
    {
      "wrapS": 10497,
      "wrapT": 10497
    }
  ],
  "scene": 0,
  "scenes": [
    {
      "nodes": [
        0
      ]
    }
  ],
  "textures": [
    {
      "name": "1651003284438_2",
      "sampler": 0,
      "source": 0
    },
    {
      "name": "1651003284438_3",
      "sampler": 0,
      "source": 1
    }
  ]
}
