{
  "accessors": [
    {
      "name": "Node-Mesh_0_positions",
      "componentType": 5126,
      "count": 95,
      "min": [
        -2.953249931335449,
        -0.9901000261306763,
        -1.7413500547409058
      ],
      "max": [
        0.3229300081729889,
        1.2311400175094604,
        1.2166600227355957
      ],
      "type": "VEC3",
      "bufferView": 0,
      "byteOffset": 0
    },
    {
      "name": "Node-Mesh_0_normals",
      "componentType": 5126,
      "count": 95,
      "min": [
        -0.9962918162345886,
        -0.6099810600280762,
        -0.9948448538780212
      ],
      "max": [
        0.9635032415390015,
        0.9927771687507629,
        0.9996299743652344
      ],
      "type": "VEC3",
      "bufferView": 1,
      "byteOffset": 0
    },
    {
      "name": "Node-Mesh_0_texcoords",
      "componentType": 5126,
      "count": 95,
      "min": [
        0.2180590033531189,
        0.030486000701785088
      ],
      "max": [
        0.9646850228309631,
        0.8849499821662903
      ],
      "type": "VEC2",
      "bufferView": 2,
      "byteOffset": 0
    },
    {
      "name": "Node-Mesh_0_indices",
      "componentType": 5123,
      "count": 282,
      "min": [
        0
      ],
      "max": [
        94
      ],
      "type": "SCALAR",
      "bufferView": 3,
      "byteOffset": 0
    },
    {
      "name": "Node-Mesh_1_positions",
      "componentType": 5126,
      "count": 19,
      "min": [
        -2.8635499477386475,
        -0.9901000261306763,
        -1.6881400346755981
      ],
      "max": [
        0.3229300081729889,
        -0.3543199896812439,
        1.2166600227355957
      ],
      "type": "VEC3",
      "bufferView": 0,
      "byteOffset": 1140
    },
    {
      "name": "Node-Mesh_1_normals",
      "componentType": 5126,
      "count": 19,
      "min": [
        -0.3631789982318878,
        -0.9980395436286926,
        -0.5972389578819275
      ],
      "max": [
        0.8427662253379822,
        -0.361252099275589,
        0.743546187877655
      ],
      "type": "VEC3",
      "bufferView": 1,
      "byteOffset": 1140
    },
    {
      "name": "Node-Mesh_1_texcoords",
      "componentType": 5126,
      "count": 19,
      "min": [
        0.811083972454071,
        0.42905399203300476
      ],
      "max": [
        0.8811579942703247,
        0.48855701088905334
      ],
      "type": "VEC2",
      "bufferView": 2,
      "byteOffset": 760
    },
    {
      "name": "Node-Mesh_1_indices",
      "componentType": 5123,
      "count": 60,
      "min": [
        0
      ],
      "max": [
        18
      ],
      "type": "SCALAR",
      "bufferView": 3,
      "byteOffset": 564
    }
  ],
  "asset": {
    "generator": "obj2gltf",
    "version": "2.0"
  },
  "buffers": [
    {
      "name": "hut2",
      "byteLength": 2707584,
      "uri": "data:application/octet-stream;base64,"
    }
  ],
  "bufferViews": [
    {
      "name": "bufferView_0",
      "buffer": 0,
      "byteLength": 1368,
      "byteOffset": 0,
      "byteStride": 12,
      "target": 34962
    },
    {
      "name": "bufferView_1",
      "buffer": 0,
      "byteLength": 1368,
      "byteOffset": 1368,
      "byteStride": 12,
      "target": 34962
    },
    {
      "name": "bufferView_2",
      "buffer": 0,
      "byteLength": 912,
      "byteOffset": 2736,
      "byteStride": 8,
      "target": 34962
    },
    {
      "name": "bufferView_3",
      "buffer": 0,
      "byteLength": 684,
      "byteOffset": 3648,
      "target": 34963
    },
    {
      "buffer": 0,
      "byteOffset": 4332,
      "byteLength": 1489980
    },
    {
      "buffer": 0,
      "byteOffset": 1494312,
      "byteLength": 1213271
    }
  ],
  "images": [
    {
      "name": "1651312226590_0",
      "mimeType": "image/png",
      "bufferView": 4
    },
    {
      "name": "1651312226590_2",
      "mimeType": "image/png",
      "bufferView": 5
    }
  ],
  "materials": [
    {
      "name": "material_0",
      "pbrMetallicRoughness": {
        "baseColorTexture": {
          "index": 0
        },
        "baseColorFactor": [
          1,
          1,
          1,
          1
        ],
        "metallicFactor": 0,
        "roughnessFactor": 1
      },
      "emissiveFactor": [
        0,
        0,
        0
      ],
      "alphaMode": "OPAQUE",
      "doubleSided": false
    },
    {
      "name": "material_1",
      "pbrMetallicRoughness": {
        "baseColorTexture": {
          "index": 1
        },
        "baseColorFactor": [
          1,
          1,
          1,
          1
        ],
        "metallicFactor": 0,
        "roughnessFactor": 1
      },
      "emissiveFactor": [
        0,
        0,
        0
      ],
      "alphaMode": "OPAQUE",
      "doubleSided": false
    }
  ],
  "meshes": [
    {
      "name": "Node-Mesh",
      "primitives": [
        {
          "attributes": {
            "POSITION": 0,
            "NORMAL": 1,
            "TEXCOORD_0": 2
          },
          "indices": 3,
          "material": 0,
          "mode": 4
        },
        {
          "attributes": {
            "POSITION": 4,
            "NORMAL": 5,
            "TEXCOORD_0": 6
          },
          "indices": 7,
          "material": 1,
          "mode": 4
        }
      ]
    }
  ],
  "nodes": [
    {
      "name": "Node",
      "mesh": 0
    }
  ],
  "samplers": [
    {
      "wrapS": 10497,
      "wrapT": 10497
    }
  ],
  "scene": 0,
  "scenes": [
    {
      "nodes": [
        0
      ]
    }
  ],
  "textures": [
    {
      "name": "1651312226590_0",
      "sampler": 0,
      "source": 0
    },
    {
      "name": "1651312226590_2",
      "sampler": 0,
      "source": 1
    }
  ]
}
